<svg width="14.000000" height="16.000000" viewBox="0 0 14 16" fill="none" xmlns="http://www.w3.org/2000/svg">
	<defs/>
	<path id="Vector" d="M0.26 13.07C0.18 12.99 0.11 12.89 0.07 12.78C0.02 12.67 0 12.55 0 12.44C-0.01 12.32 0.02 12.2 0.06 12.09C0.1 11.98 0.17 11.88 0.25 11.8C0.33 11.72 0.43 11.65 0.54 11.61C0.65 11.56 0.76 11.54 0.88 11.54C0.99 11.54 1.11 11.57 1.21 11.61C1.32 11.66 1.42 11.73 1.5 11.81L2.63 12.96L2.63 6.22C2.63 5.98 2.72 5.76 2.88 5.59C3.05 5.42 3.27 5.33 3.5 5.33C3.73 5.33 3.95 5.42 4.12 5.59C4.28 5.76 4.37 5.98 4.37 6.22L4.37 12.96L5.5 11.81C5.67 11.65 5.89 11.56 6.12 11.56C6.35 11.56 6.57 11.66 6.73 11.82C6.89 11.99 6.98 12.21 6.98 12.44C6.99 12.68 6.9 12.9 6.74 13.07L4.12 15.73C3.95 15.9 3.73 16 3.5 16C3.27 16 3.05 15.9 2.88 15.73L0.26 13.07ZM7.25 2.92C7.09 3.09 7 3.31 7.01 3.55C7.01 3.78 7.1 4 7.26 4.17C7.42 4.33 7.64 4.43 7.87 4.43C8.1 4.43 8.32 4.34 8.49 4.18L9.62 3.03L9.62 9.77C9.62 10.01 9.71 10.23 9.87 10.4C10.04 10.57 10.26 10.66 10.49 10.66C10.72 10.66 10.94 10.57 11.11 10.4C11.27 10.23 11.36 10.01 11.36 9.77L11.36 3.03L12.49 4.18C12.57 4.26 12.67 4.33 12.78 4.38C12.88 4.42 13 4.45 13.11 4.45C13.23 4.45 13.34 4.43 13.45 4.38C13.56 4.34 13.66 4.27 13.74 4.19C13.82 4.11 13.89 4.01 13.93 3.9C13.97 3.79 14 3.67 14 3.55C13.99 3.44 13.97 3.32 13.92 3.21C13.88 3.1 13.81 3 13.73 2.92L11.11 0.26C10.94 0.09 10.72 0 10.49 0C10.26 0 10.04 0.09 9.87 0.26L7.25 2.92Z" fill="#000000" fill-opacity="1.000000" fill-rule="nonzero"/>
</svg>
